<?xml version="1.0" encoding="UTF-8"?>
<svg xmlns="http://www.w3.org/2000/svg" width="28" height="15" version="1.1" viewBox="0 0 28 15">
  <defs>
    <style>
      .cls-1 {
        fill: #fff;
      }
    </style>
  </defs>
  <!-- Generator: Adobe Illustrator 28.7.3, SVG Export Plug-In . SVG Version: 1.2.0 Build 164)  -->
  <g>
    <g id="Layer_1">
      <g id="Layer_1-2" data-name="Layer_1">
        <path d="M1.5,0h11c.8,0,1.5.7,1.5,1.5h0c0,.8-.7,1.5-1.5,1.5H1.5c-.8,0-1.5-.7-1.5-1.5h0C0,.7.7,0,1.5,0Z"/>
        <path d="M1.5,6h11c.8,0,1.5.7,1.5,1.5h0c0,.8-.7,1.5-1.5,1.5H1.5c-.8,0-1.5-.7-1.5-1.5h0c0-.8.7-1.5,1.5-1.5Z"/>
        <path d="M1.5,12h11c.8,0,1.5.7,1.5,1.5h0c0,.8-.7,1.5-1.5,1.5H1.5c-.8,0-1.5-.7-1.5-1.5h0c0-.8.7-1.5,1.5-1.5Z"/>
        <path class="cls-1" d="M15.5,0h11c.8,0,1.5.7,1.5,1.5h0c0,.8-.7,1.5-1.5,1.5h-11c-.8,0-1.5-.7-1.5-1.5h0c0-.8.7-1.5,1.5-1.5Z"/>
        <path class="cls-1" d="M15.5,6h11c.8,0,1.5.7,1.5,1.5h0c0,.8-.7,1.5-1.5,1.5h-11c-.8,0-1.5-.7-1.5-1.5h0c0-.8.7-1.5,1.5-1.5Z"/>
        <path class="cls-1" d="M15.5,12h11c.8,0,1.5.7,1.5,1.5h0c0,.8-.7,1.5-1.5,1.5h-11c-.8,0-1.5-.7-1.5-1.5h0c0-.8.7-1.5,1.5-1.5Z"/>
      </g>
    </g>
  </g>
</svg>