<?xml version="1.0" encoding="UTF-8"?>
<svg xmlns="http://www.w3.org/2000/svg" width="80" height="40" version="1.1" viewBox="0 0 80 40">
  <defs>
    <style>
      .cls-1 {
        fill: none;
        stroke: #000;
        stroke-linecap: round;
        stroke-linejoin: round;
        stroke-width: 2px;
      }

      .cls-2 {
        fill: #fff;
      }
    </style>
  </defs>
  <!-- Generator: Adobe Illustrator 28.7.2, SVG Export Plug-In . SVG Version: 1.2.0 Build 154)  -->
  <g>
    <g id="Layer_1">
      <path class="cls-2" d="M60,20c-2.2-2.2-2.4-5.5-.8-8-1.8.2-3.5.9-4.9,2.3-3.1,3.1-3.1,8.2,0,11.3,3.1,3.1,8.2,3.1,11.3,0s2.1-3.1,2.3-4.9c-2.5,1.7-5.8,1.4-8-.8Z"/>
      <circle cx="19" cy="20" r="5"/>
      <line class="cls-1" x1="19" y1="13" x2="19" y2="11.1"/>
      <line class="cls-1" x1="19" y1="29" x2="19" y2="27.1"/>
      <line class="cls-1" x1="24" y1="15.1" x2="25.3" y2="13.7"/>
      <line class="cls-1" x1="12.7" y1="26.4" x2="14" y2="25"/>
      <line class="cls-1" x1="26" y1="20" x2="28" y2="20"/>
      <line class="cls-1" x1="10" y1="20" x2="12" y2="20"/>
      <line class="cls-1" x1="24" y1="25" x2="25.3" y2="26.4"/>
      <line class="cls-1" x1="12.7" y1="13.7" x2="14" y2="15.1"/>
    </g>
  </g>
</svg>